<svg width="44" height="44" viewBox="0 0 44 44" fill="none" xmlns="http://www.w3.org/2000/svg">
<path d="M32.5607 16.5607C33.1464 15.9749 33.1464 15.0251 32.5607 14.4394C31.9749 13.8536 31.0251 13.8536 30.4393 14.4394L18.5 26.3787L13.5607 21.4394C12.9749 20.8536 12.0251 20.8536 11.4393 21.4394C10.8536 22.0251 10.8536 22.9749 11.4393 23.5607L17.4393 29.5607C18.0251 30.1465 18.9749 30.1465 19.5607 29.5607L32.5607 16.5607Z" fill="#19AB4F"/>
<path fill-rule="evenodd" clip-rule="evenodd" d="M22 1.90735e-05C9.84974 1.90735e-05 0 9.84975 0 22C0 34.1503 9.84974 44 22 44C34.1503 44 44 34.1503 44 22C44 9.84975 34.1503 1.90735e-05 22 1.90735e-05ZM3 22C3 11.5066 11.5066 3.00002 22 3.00002C32.4934 3.00002 41 11.5066 41 22C41 32.4934 32.4934 41 22 41C11.5066 41 3 32.4934 3 22Z" fill="#19AB4F"/>
</svg>
